<mxfile host="app.diagrams.net" modified="2024-01-19T19:48:47.791Z" agent="Mozilla/5.0 (Windows NT 10.0; Win64; x64) AppleWebKit/537.36 (KHTML, like Gecko) Chrome/120.0.0.0 Safari/537.36" etag="MDjCGQRQnCgRkYJyUtFT" version="22.1.21" type="device">
  <diagram name="PÃ gina-1" id="zcsX2nPpor7r134yO1qm">
    <mxGraphModel dx="2049" dy="1054" grid="1" gridSize="10" guides="1" tooltips="1" connect="1" arrows="1" fold="1" page="1" pageScale="1" pageWidth="827" pageHeight="1169" math="0" shadow="0">
      <root>
        <mxCell id="0" />
        <mxCell id="1" parent="0" />
        <mxCell id="hdxrNy6VcyAhg9l_nc_A-37" value="" style="rounded=0;whiteSpace=wrap;html=1;" vertex="1" parent="1">
          <mxGeometry x="274" y="540" width="520" height="180" as="geometry" />
        </mxCell>
        <mxCell id="hdxrNy6VcyAhg9l_nc_A-4" value="" style="rounded=0;whiteSpace=wrap;html=1;" vertex="1" parent="1">
          <mxGeometry x="34" y="540" width="230" height="320" as="geometry" />
        </mxCell>
        <mxCell id="hdxrNy6VcyAhg9l_nc_A-2" value="" style="rounded=0;whiteSpace=wrap;html=1;" vertex="1" parent="1">
          <mxGeometry x="34" y="315.83000000000004" width="760" height="200" as="geometry" />
        </mxCell>
        <mxCell id="hdxrNy6VcyAhg9l_nc_A-1" value="" style="rounded=0;whiteSpace=wrap;html=1;" vertex="1" parent="1">
          <mxGeometry x="34" y="110" width="760" height="200" as="geometry" />
        </mxCell>
        <mxCell id="9doWRBDLY9oyG0HQF3CF-1" value="" style="rounded=0;whiteSpace=wrap;html=1;rotation=-90;" parent="1" vertex="1">
          <mxGeometry x="39" y="165" width="130" height="60" as="geometry" />
        </mxCell>
        <mxCell id="9doWRBDLY9oyG0HQF3CF-3" value="" style="endArrow=classic;html=1;rounded=0;exitX=0.878;exitY=1.011;exitDx=0;exitDy=0;exitPerimeter=0;" parent="1" edge="1">
          <mxGeometry width="50" height="50" relative="1" as="geometry">
            <mxPoint x="135" y="160" as="sourcePoint" />
            <mxPoint x="164" y="160" as="targetPoint" />
          </mxGeometry>
        </mxCell>
        <mxCell id="9doWRBDLY9oyG0HQF3CF-4" value="" style="endArrow=classic;html=1;rounded=0;exitX=0.878;exitY=1.011;exitDx=0;exitDy=0;exitPerimeter=0;" parent="1" edge="1">
          <mxGeometry width="50" height="50" relative="1" as="geometry">
            <mxPoint x="135" y="170" as="sourcePoint" />
            <mxPoint x="164" y="170" as="targetPoint" />
          </mxGeometry>
        </mxCell>
        <mxCell id="9doWRBDLY9oyG0HQF3CF-5" value="" style="endArrow=classic;html=1;rounded=0;exitX=0.878;exitY=1.011;exitDx=0;exitDy=0;exitPerimeter=0;" parent="1" edge="1">
          <mxGeometry width="50" height="50" relative="1" as="geometry">
            <mxPoint x="135" y="180" as="sourcePoint" />
            <mxPoint x="164" y="180" as="targetPoint" />
          </mxGeometry>
        </mxCell>
        <mxCell id="9doWRBDLY9oyG0HQF3CF-6" value="" style="endArrow=classic;html=1;rounded=0;exitX=0.878;exitY=1.011;exitDx=0;exitDy=0;exitPerimeter=0;" parent="1" edge="1">
          <mxGeometry width="50" height="50" relative="1" as="geometry">
            <mxPoint x="135" y="189.82999999999998" as="sourcePoint" />
            <mxPoint x="164" y="189.82999999999998" as="targetPoint" />
          </mxGeometry>
        </mxCell>
        <mxCell id="9doWRBDLY9oyG0HQF3CF-7" value="" style="endArrow=classic;html=1;rounded=0;exitX=0.878;exitY=1.011;exitDx=0;exitDy=0;exitPerimeter=0;" parent="1" edge="1">
          <mxGeometry width="50" height="50" relative="1" as="geometry">
            <mxPoint x="135" y="200" as="sourcePoint" />
            <mxPoint x="164" y="200" as="targetPoint" />
          </mxGeometry>
        </mxCell>
        <mxCell id="9doWRBDLY9oyG0HQF3CF-8" value="" style="endArrow=classic;html=1;rounded=0;exitX=0.878;exitY=1.011;exitDx=0;exitDy=0;exitPerimeter=0;" parent="1" edge="1">
          <mxGeometry width="50" height="50" relative="1" as="geometry">
            <mxPoint x="135" y="210" as="sourcePoint" />
            <mxPoint x="164" y="210" as="targetPoint" />
          </mxGeometry>
        </mxCell>
        <mxCell id="9doWRBDLY9oyG0HQF3CF-9" value="" style="endArrow=classic;html=1;rounded=0;exitX=0.878;exitY=1.011;exitDx=0;exitDy=0;exitPerimeter=0;" parent="1" edge="1">
          <mxGeometry width="50" height="50" relative="1" as="geometry">
            <mxPoint x="135" y="220" as="sourcePoint" />
            <mxPoint x="164" y="220" as="targetPoint" />
          </mxGeometry>
        </mxCell>
        <mxCell id="9doWRBDLY9oyG0HQF3CF-10" value="" style="endArrow=classic;html=1;rounded=0;exitX=0.878;exitY=1.011;exitDx=0;exitDy=0;exitPerimeter=0;" parent="1" edge="1">
          <mxGeometry width="50" height="50" relative="1" as="geometry">
            <mxPoint x="135" y="150" as="sourcePoint" />
            <mxPoint x="164" y="150" as="targetPoint" />
          </mxGeometry>
        </mxCell>
        <mxCell id="9doWRBDLY9oyG0HQF3CF-11" value="" style="endArrow=classic;html=1;rounded=0;exitX=0.878;exitY=1.011;exitDx=0;exitDy=0;exitPerimeter=0;" parent="1" edge="1">
          <mxGeometry width="50" height="50" relative="1" as="geometry">
            <mxPoint x="135" y="230" as="sourcePoint" />
            <mxPoint x="164" y="230" as="targetPoint" />
          </mxGeometry>
        </mxCell>
        <mxCell id="9doWRBDLY9oyG0HQF3CF-12" value="" style="endArrow=classic;html=1;rounded=0;exitX=0.878;exitY=1.011;exitDx=0;exitDy=0;exitPerimeter=0;" parent="1" edge="1">
          <mxGeometry width="50" height="50" relative="1" as="geometry">
            <mxPoint x="135" y="140" as="sourcePoint" />
            <mxPoint x="164" y="140" as="targetPoint" />
          </mxGeometry>
        </mxCell>
        <mxCell id="9doWRBDLY9oyG0HQF3CF-13" value="" style="endArrow=classic;html=1;rounded=0;exitX=0.878;exitY=1.011;exitDx=0;exitDy=0;exitPerimeter=0;" parent="1" edge="1">
          <mxGeometry width="50" height="50" relative="1" as="geometry">
            <mxPoint x="135" y="240" as="sourcePoint" />
            <mxPoint x="164" y="240" as="targetPoint" />
          </mxGeometry>
        </mxCell>
        <mxCell id="9doWRBDLY9oyG0HQF3CF-14" value="" style="endArrow=classic;html=1;rounded=0;exitX=0.878;exitY=1.011;exitDx=0;exitDy=0;exitPerimeter=0;" parent="1" edge="1">
          <mxGeometry width="50" height="50" relative="1" as="geometry">
            <mxPoint x="134" y="250" as="sourcePoint" />
            <mxPoint x="163" y="250" as="targetPoint" />
          </mxGeometry>
        </mxCell>
        <mxCell id="9doWRBDLY9oyG0HQF3CF-15" value="1" style="text;html=1;strokeColor=none;fillColor=none;align=center;verticalAlign=middle;whiteSpace=wrap;rounded=0;" parent="1" vertex="1">
          <mxGeometry x="124" y="130" width="10" height="10" as="geometry" />
        </mxCell>
        <mxCell id="9doWRBDLY9oyG0HQF3CF-17" value="2" style="text;html=1;strokeColor=none;fillColor=none;align=center;verticalAlign=middle;whiteSpace=wrap;rounded=0;" parent="1" vertex="1">
          <mxGeometry x="124" y="140" width="10" height="10" as="geometry" />
        </mxCell>
        <mxCell id="9doWRBDLY9oyG0HQF3CF-18" value="3" style="text;html=1;strokeColor=none;fillColor=none;align=center;verticalAlign=middle;whiteSpace=wrap;rounded=0;" parent="1" vertex="1">
          <mxGeometry x="124" y="150" width="10" height="10" as="geometry" />
        </mxCell>
        <mxCell id="9doWRBDLY9oyG0HQF3CF-19" value="4" style="text;html=1;strokeColor=none;fillColor=none;align=center;verticalAlign=middle;whiteSpace=wrap;rounded=0;" parent="1" vertex="1">
          <mxGeometry x="124" y="160" width="10" height="10" as="geometry" />
        </mxCell>
        <mxCell id="9doWRBDLY9oyG0HQF3CF-20" value="5" style="text;html=1;strokeColor=none;fillColor=none;align=center;verticalAlign=middle;whiteSpace=wrap;rounded=0;" parent="1" vertex="1">
          <mxGeometry x="124" y="170" width="10" height="10" as="geometry" />
        </mxCell>
        <mxCell id="9doWRBDLY9oyG0HQF3CF-21" value="6" style="text;html=1;strokeColor=none;fillColor=none;align=center;verticalAlign=middle;whiteSpace=wrap;rounded=0;" parent="1" vertex="1">
          <mxGeometry x="124" y="180" width="10" height="10" as="geometry" />
        </mxCell>
        <mxCell id="9doWRBDLY9oyG0HQF3CF-22" value="7" style="text;html=1;strokeColor=none;fillColor=none;align=center;verticalAlign=middle;whiteSpace=wrap;rounded=0;" parent="1" vertex="1">
          <mxGeometry x="124" y="190" width="10" height="10" as="geometry" />
        </mxCell>
        <mxCell id="9doWRBDLY9oyG0HQF3CF-23" value="8" style="text;html=1;strokeColor=none;fillColor=none;align=center;verticalAlign=middle;whiteSpace=wrap;rounded=0;" parent="1" vertex="1">
          <mxGeometry x="124" y="200" width="10" height="10" as="geometry" />
        </mxCell>
        <mxCell id="9doWRBDLY9oyG0HQF3CF-24" value="9" style="text;html=1;strokeColor=none;fillColor=none;align=center;verticalAlign=middle;whiteSpace=wrap;rounded=0;" parent="1" vertex="1">
          <mxGeometry x="124" y="210" width="10" height="10" as="geometry" />
        </mxCell>
        <mxCell id="9doWRBDLY9oyG0HQF3CF-25" value="10" style="text;html=1;strokeColor=none;fillColor=none;align=center;verticalAlign=middle;whiteSpace=wrap;rounded=0;" parent="1" vertex="1">
          <mxGeometry x="121" y="220" width="10" height="10" as="geometry" />
        </mxCell>
        <mxCell id="9doWRBDLY9oyG0HQF3CF-26" value="11" style="text;html=1;strokeColor=none;fillColor=none;align=center;verticalAlign=middle;whiteSpace=wrap;rounded=0;" parent="1" vertex="1">
          <mxGeometry x="121" y="230" width="10" height="10" as="geometry" />
        </mxCell>
        <mxCell id="9doWRBDLY9oyG0HQF3CF-27" value="12" style="text;html=1;strokeColor=none;fillColor=none;align=center;verticalAlign=middle;whiteSpace=wrap;rounded=0;rotation=0;" parent="1" vertex="1">
          <mxGeometry x="121" y="240" width="10" height="10" as="geometry" />
        </mxCell>
        <mxCell id="9doWRBDLY9oyG0HQF3CF-53" value="" style="rounded=0;whiteSpace=wrap;html=1;rotation=-90;" parent="1" vertex="1">
          <mxGeometry x="39" y="385.43" width="130" height="60" as="geometry" />
        </mxCell>
        <mxCell id="9doWRBDLY9oyG0HQF3CF-54" value="" style="endArrow=classic;html=1;rounded=0;exitX=0.878;exitY=1.011;exitDx=0;exitDy=0;exitPerimeter=0;" parent="1" edge="1">
          <mxGeometry width="50" height="50" relative="1" as="geometry">
            <mxPoint x="135" y="380.43" as="sourcePoint" />
            <mxPoint x="164" y="380.43" as="targetPoint" />
          </mxGeometry>
        </mxCell>
        <mxCell id="9doWRBDLY9oyG0HQF3CF-55" value="" style="endArrow=classic;html=1;rounded=0;exitX=0.878;exitY=1.011;exitDx=0;exitDy=0;exitPerimeter=0;" parent="1" edge="1">
          <mxGeometry width="50" height="50" relative="1" as="geometry">
            <mxPoint x="135" y="390.43" as="sourcePoint" />
            <mxPoint x="164" y="390.43" as="targetPoint" />
          </mxGeometry>
        </mxCell>
        <mxCell id="9doWRBDLY9oyG0HQF3CF-56" value="" style="endArrow=classic;html=1;rounded=0;exitX=0.878;exitY=1.011;exitDx=0;exitDy=0;exitPerimeter=0;" parent="1" edge="1">
          <mxGeometry width="50" height="50" relative="1" as="geometry">
            <mxPoint x="135" y="400.43" as="sourcePoint" />
            <mxPoint x="164" y="400.43" as="targetPoint" />
          </mxGeometry>
        </mxCell>
        <mxCell id="9doWRBDLY9oyG0HQF3CF-57" value="" style="endArrow=classic;html=1;rounded=0;exitX=0.878;exitY=1.011;exitDx=0;exitDy=0;exitPerimeter=0;" parent="1" edge="1">
          <mxGeometry width="50" height="50" relative="1" as="geometry">
            <mxPoint x="135" y="410.26" as="sourcePoint" />
            <mxPoint x="164" y="410.26" as="targetPoint" />
          </mxGeometry>
        </mxCell>
        <mxCell id="9doWRBDLY9oyG0HQF3CF-58" value="" style="endArrow=classic;html=1;rounded=0;exitX=0.878;exitY=1.011;exitDx=0;exitDy=0;exitPerimeter=0;" parent="1" edge="1">
          <mxGeometry width="50" height="50" relative="1" as="geometry">
            <mxPoint x="135" y="420.43" as="sourcePoint" />
            <mxPoint x="164" y="420.43" as="targetPoint" />
          </mxGeometry>
        </mxCell>
        <mxCell id="9doWRBDLY9oyG0HQF3CF-59" value="" style="endArrow=classic;html=1;rounded=0;exitX=0.878;exitY=1.011;exitDx=0;exitDy=0;exitPerimeter=0;" parent="1" edge="1">
          <mxGeometry width="50" height="50" relative="1" as="geometry">
            <mxPoint x="135" y="430.43" as="sourcePoint" />
            <mxPoint x="164" y="430.43" as="targetPoint" />
          </mxGeometry>
        </mxCell>
        <mxCell id="9doWRBDLY9oyG0HQF3CF-60" value="" style="endArrow=classic;html=1;rounded=0;exitX=0.878;exitY=1.011;exitDx=0;exitDy=0;exitPerimeter=0;" parent="1" edge="1">
          <mxGeometry width="50" height="50" relative="1" as="geometry">
            <mxPoint x="135" y="440.43" as="sourcePoint" />
            <mxPoint x="164" y="440.43" as="targetPoint" />
          </mxGeometry>
        </mxCell>
        <mxCell id="9doWRBDLY9oyG0HQF3CF-61" value="" style="endArrow=classic;html=1;rounded=0;exitX=0.878;exitY=1.011;exitDx=0;exitDy=0;exitPerimeter=0;" parent="1" edge="1">
          <mxGeometry width="50" height="50" relative="1" as="geometry">
            <mxPoint x="135" y="370.43" as="sourcePoint" />
            <mxPoint x="164" y="370.43" as="targetPoint" />
          </mxGeometry>
        </mxCell>
        <mxCell id="9doWRBDLY9oyG0HQF3CF-62" value="" style="endArrow=classic;html=1;rounded=0;exitX=0.878;exitY=1.011;exitDx=0;exitDy=0;exitPerimeter=0;" parent="1" edge="1">
          <mxGeometry width="50" height="50" relative="1" as="geometry">
            <mxPoint x="135" y="450.43" as="sourcePoint" />
            <mxPoint x="164" y="450.43" as="targetPoint" />
          </mxGeometry>
        </mxCell>
        <mxCell id="9doWRBDLY9oyG0HQF3CF-63" value="" style="endArrow=classic;html=1;rounded=0;exitX=0.878;exitY=1.011;exitDx=0;exitDy=0;exitPerimeter=0;" parent="1" edge="1">
          <mxGeometry width="50" height="50" relative="1" as="geometry">
            <mxPoint x="135" y="360.43" as="sourcePoint" />
            <mxPoint x="164" y="360.43" as="targetPoint" />
          </mxGeometry>
        </mxCell>
        <mxCell id="9doWRBDLY9oyG0HQF3CF-64" value="" style="endArrow=classic;html=1;rounded=0;exitX=0.878;exitY=1.011;exitDx=0;exitDy=0;exitPerimeter=0;" parent="1" edge="1">
          <mxGeometry width="50" height="50" relative="1" as="geometry">
            <mxPoint x="135" y="460.43" as="sourcePoint" />
            <mxPoint x="164" y="460.43" as="targetPoint" />
          </mxGeometry>
        </mxCell>
        <mxCell id="9doWRBDLY9oyG0HQF3CF-65" value="" style="endArrow=classic;html=1;rounded=0;exitX=0.878;exitY=1.011;exitDx=0;exitDy=0;exitPerimeter=0;" parent="1" edge="1">
          <mxGeometry width="50" height="50" relative="1" as="geometry">
            <mxPoint x="134" y="470.43" as="sourcePoint" />
            <mxPoint x="163" y="470.43" as="targetPoint" />
          </mxGeometry>
        </mxCell>
        <mxCell id="9doWRBDLY9oyG0HQF3CF-66" value="1" style="text;html=1;strokeColor=none;fillColor=none;align=center;verticalAlign=middle;whiteSpace=wrap;rounded=0;" parent="1" vertex="1">
          <mxGeometry x="124" y="350.43" width="10" height="10" as="geometry" />
        </mxCell>
        <mxCell id="9doWRBDLY9oyG0HQF3CF-67" value="2" style="text;html=1;strokeColor=none;fillColor=none;align=center;verticalAlign=middle;whiteSpace=wrap;rounded=0;" parent="1" vertex="1">
          <mxGeometry x="124" y="360.43" width="10" height="10" as="geometry" />
        </mxCell>
        <mxCell id="9doWRBDLY9oyG0HQF3CF-68" value="3" style="text;html=1;strokeColor=none;fillColor=none;align=center;verticalAlign=middle;whiteSpace=wrap;rounded=0;" parent="1" vertex="1">
          <mxGeometry x="124" y="370.43" width="10" height="10" as="geometry" />
        </mxCell>
        <mxCell id="9doWRBDLY9oyG0HQF3CF-69" value="4" style="text;html=1;strokeColor=none;fillColor=none;align=center;verticalAlign=middle;whiteSpace=wrap;rounded=0;" parent="1" vertex="1">
          <mxGeometry x="124" y="380.43" width="10" height="10" as="geometry" />
        </mxCell>
        <mxCell id="9doWRBDLY9oyG0HQF3CF-70" value="5" style="text;html=1;strokeColor=none;fillColor=none;align=center;verticalAlign=middle;whiteSpace=wrap;rounded=0;" parent="1" vertex="1">
          <mxGeometry x="124" y="390.43" width="10" height="10" as="geometry" />
        </mxCell>
        <mxCell id="9doWRBDLY9oyG0HQF3CF-71" value="6" style="text;html=1;strokeColor=none;fillColor=none;align=center;verticalAlign=middle;whiteSpace=wrap;rounded=0;" parent="1" vertex="1">
          <mxGeometry x="124" y="400.43" width="10" height="10" as="geometry" />
        </mxCell>
        <mxCell id="9doWRBDLY9oyG0HQF3CF-72" value="7" style="text;html=1;strokeColor=none;fillColor=none;align=center;verticalAlign=middle;whiteSpace=wrap;rounded=0;" parent="1" vertex="1">
          <mxGeometry x="124" y="410.43" width="10" height="10" as="geometry" />
        </mxCell>
        <mxCell id="9doWRBDLY9oyG0HQF3CF-73" value="8" style="text;html=1;strokeColor=none;fillColor=none;align=center;verticalAlign=middle;whiteSpace=wrap;rounded=0;" parent="1" vertex="1">
          <mxGeometry x="124" y="420.43" width="10" height="10" as="geometry" />
        </mxCell>
        <mxCell id="9doWRBDLY9oyG0HQF3CF-74" value="9" style="text;html=1;strokeColor=none;fillColor=none;align=center;verticalAlign=middle;whiteSpace=wrap;rounded=0;" parent="1" vertex="1">
          <mxGeometry x="124" y="430.43" width="10" height="10" as="geometry" />
        </mxCell>
        <mxCell id="9doWRBDLY9oyG0HQF3CF-75" value="10" style="text;html=1;strokeColor=none;fillColor=none;align=center;verticalAlign=middle;whiteSpace=wrap;rounded=0;" parent="1" vertex="1">
          <mxGeometry x="121" y="440.43" width="10" height="10" as="geometry" />
        </mxCell>
        <mxCell id="9doWRBDLY9oyG0HQF3CF-76" value="11" style="text;html=1;strokeColor=none;fillColor=none;align=center;verticalAlign=middle;whiteSpace=wrap;rounded=0;" parent="1" vertex="1">
          <mxGeometry x="121" y="450.43" width="10" height="10" as="geometry" />
        </mxCell>
        <mxCell id="9doWRBDLY9oyG0HQF3CF-77" value="12" style="text;html=1;strokeColor=none;fillColor=none;align=center;verticalAlign=middle;whiteSpace=wrap;rounded=0;rotation=0;" parent="1" vertex="1">
          <mxGeometry x="121" y="460.43" width="10" height="10" as="geometry" />
        </mxCell>
        <mxCell id="9doWRBDLY9oyG0HQF3CF-78" value="" style="rounded=0;whiteSpace=wrap;html=1;rotation=-90;" parent="1" vertex="1">
          <mxGeometry x="434" y="165" width="130" height="60" as="geometry" />
        </mxCell>
        <mxCell id="9doWRBDLY9oyG0HQF3CF-79" value="" style="endArrow=classic;html=1;rounded=0;exitX=0.878;exitY=1.011;exitDx=0;exitDy=0;exitPerimeter=0;" parent="1" edge="1">
          <mxGeometry width="50" height="50" relative="1" as="geometry">
            <mxPoint x="530" y="160" as="sourcePoint" />
            <mxPoint x="559" y="160" as="targetPoint" />
          </mxGeometry>
        </mxCell>
        <mxCell id="9doWRBDLY9oyG0HQF3CF-80" value="" style="endArrow=classic;html=1;rounded=0;exitX=0.878;exitY=1.011;exitDx=0;exitDy=0;exitPerimeter=0;" parent="1" edge="1">
          <mxGeometry width="50" height="50" relative="1" as="geometry">
            <mxPoint x="530" y="170" as="sourcePoint" />
            <mxPoint x="559" y="170" as="targetPoint" />
          </mxGeometry>
        </mxCell>
        <mxCell id="9doWRBDLY9oyG0HQF3CF-81" value="" style="endArrow=classic;html=1;rounded=0;exitX=0.878;exitY=1.011;exitDx=0;exitDy=0;exitPerimeter=0;" parent="1" edge="1">
          <mxGeometry width="50" height="50" relative="1" as="geometry">
            <mxPoint x="530" y="180" as="sourcePoint" />
            <mxPoint x="559" y="180" as="targetPoint" />
          </mxGeometry>
        </mxCell>
        <mxCell id="9doWRBDLY9oyG0HQF3CF-82" value="" style="endArrow=classic;html=1;rounded=0;exitX=0.878;exitY=1.011;exitDx=0;exitDy=0;exitPerimeter=0;" parent="1" edge="1">
          <mxGeometry width="50" height="50" relative="1" as="geometry">
            <mxPoint x="530" y="189.82999999999998" as="sourcePoint" />
            <mxPoint x="559" y="189.82999999999998" as="targetPoint" />
          </mxGeometry>
        </mxCell>
        <mxCell id="9doWRBDLY9oyG0HQF3CF-83" value="" style="endArrow=classic;html=1;rounded=0;exitX=0.878;exitY=1.011;exitDx=0;exitDy=0;exitPerimeter=0;" parent="1" edge="1">
          <mxGeometry width="50" height="50" relative="1" as="geometry">
            <mxPoint x="530" y="200" as="sourcePoint" />
            <mxPoint x="559" y="200" as="targetPoint" />
          </mxGeometry>
        </mxCell>
        <mxCell id="9doWRBDLY9oyG0HQF3CF-84" value="" style="endArrow=classic;html=1;rounded=0;exitX=0.878;exitY=1.011;exitDx=0;exitDy=0;exitPerimeter=0;" parent="1" edge="1">
          <mxGeometry width="50" height="50" relative="1" as="geometry">
            <mxPoint x="530" y="210.00000000000003" as="sourcePoint" />
            <mxPoint x="559" y="210.00000000000003" as="targetPoint" />
          </mxGeometry>
        </mxCell>
        <mxCell id="9doWRBDLY9oyG0HQF3CF-85" value="" style="endArrow=classic;html=1;rounded=0;exitX=0.878;exitY=1.011;exitDx=0;exitDy=0;exitPerimeter=0;" parent="1" edge="1">
          <mxGeometry width="50" height="50" relative="1" as="geometry">
            <mxPoint x="530" y="220.00000000000003" as="sourcePoint" />
            <mxPoint x="559" y="220.00000000000003" as="targetPoint" />
          </mxGeometry>
        </mxCell>
        <mxCell id="9doWRBDLY9oyG0HQF3CF-86" value="" style="endArrow=classic;html=1;rounded=0;exitX=0.878;exitY=1.011;exitDx=0;exitDy=0;exitPerimeter=0;" parent="1" edge="1">
          <mxGeometry width="50" height="50" relative="1" as="geometry">
            <mxPoint x="530" y="150" as="sourcePoint" />
            <mxPoint x="559" y="150" as="targetPoint" />
          </mxGeometry>
        </mxCell>
        <mxCell id="9doWRBDLY9oyG0HQF3CF-87" value="" style="endArrow=classic;html=1;rounded=0;exitX=0.878;exitY=1.011;exitDx=0;exitDy=0;exitPerimeter=0;" parent="1" edge="1">
          <mxGeometry width="50" height="50" relative="1" as="geometry">
            <mxPoint x="530" y="230.00000000000003" as="sourcePoint" />
            <mxPoint x="559" y="230.00000000000003" as="targetPoint" />
          </mxGeometry>
        </mxCell>
        <mxCell id="9doWRBDLY9oyG0HQF3CF-88" value="" style="endArrow=classic;html=1;rounded=0;exitX=0.878;exitY=1.011;exitDx=0;exitDy=0;exitPerimeter=0;" parent="1" edge="1">
          <mxGeometry width="50" height="50" relative="1" as="geometry">
            <mxPoint x="530" y="140" as="sourcePoint" />
            <mxPoint x="559" y="140" as="targetPoint" />
          </mxGeometry>
        </mxCell>
        <mxCell id="9doWRBDLY9oyG0HQF3CF-89" value="" style="endArrow=classic;html=1;rounded=0;exitX=0.878;exitY=1.011;exitDx=0;exitDy=0;exitPerimeter=0;" parent="1" edge="1">
          <mxGeometry width="50" height="50" relative="1" as="geometry">
            <mxPoint x="530" y="240.00000000000003" as="sourcePoint" />
            <mxPoint x="559" y="240.00000000000003" as="targetPoint" />
          </mxGeometry>
        </mxCell>
        <mxCell id="9doWRBDLY9oyG0HQF3CF-90" value="" style="endArrow=classic;html=1;rounded=0;exitX=0.878;exitY=1.011;exitDx=0;exitDy=0;exitPerimeter=0;" parent="1" edge="1">
          <mxGeometry width="50" height="50" relative="1" as="geometry">
            <mxPoint x="529" y="250.00000000000003" as="sourcePoint" />
            <mxPoint x="558" y="250.00000000000003" as="targetPoint" />
          </mxGeometry>
        </mxCell>
        <mxCell id="9doWRBDLY9oyG0HQF3CF-91" value="1" style="text;html=1;strokeColor=none;fillColor=none;align=center;verticalAlign=middle;whiteSpace=wrap;rounded=0;" parent="1" vertex="1">
          <mxGeometry x="519" y="130" width="10" height="10" as="geometry" />
        </mxCell>
        <mxCell id="9doWRBDLY9oyG0HQF3CF-92" value="2" style="text;html=1;strokeColor=none;fillColor=none;align=center;verticalAlign=middle;whiteSpace=wrap;rounded=0;" parent="1" vertex="1">
          <mxGeometry x="519" y="140" width="10" height="10" as="geometry" />
        </mxCell>
        <mxCell id="9doWRBDLY9oyG0HQF3CF-93" value="3" style="text;html=1;strokeColor=none;fillColor=none;align=center;verticalAlign=middle;whiteSpace=wrap;rounded=0;" parent="1" vertex="1">
          <mxGeometry x="519" y="150" width="10" height="10" as="geometry" />
        </mxCell>
        <mxCell id="9doWRBDLY9oyG0HQF3CF-94" value="4" style="text;html=1;strokeColor=none;fillColor=none;align=center;verticalAlign=middle;whiteSpace=wrap;rounded=0;" parent="1" vertex="1">
          <mxGeometry x="519" y="160" width="10" height="10" as="geometry" />
        </mxCell>
        <mxCell id="9doWRBDLY9oyG0HQF3CF-95" value="5" style="text;html=1;strokeColor=none;fillColor=none;align=center;verticalAlign=middle;whiteSpace=wrap;rounded=0;" parent="1" vertex="1">
          <mxGeometry x="519" y="170" width="10" height="10" as="geometry" />
        </mxCell>
        <mxCell id="9doWRBDLY9oyG0HQF3CF-96" value="6" style="text;html=1;strokeColor=none;fillColor=none;align=center;verticalAlign=middle;whiteSpace=wrap;rounded=0;" parent="1" vertex="1">
          <mxGeometry x="519" y="180" width="10" height="10" as="geometry" />
        </mxCell>
        <mxCell id="9doWRBDLY9oyG0HQF3CF-97" value="7" style="text;html=1;strokeColor=none;fillColor=none;align=center;verticalAlign=middle;whiteSpace=wrap;rounded=0;" parent="1" vertex="1">
          <mxGeometry x="519" y="190" width="10" height="10" as="geometry" />
        </mxCell>
        <mxCell id="9doWRBDLY9oyG0HQF3CF-98" value="8" style="text;html=1;strokeColor=none;fillColor=none;align=center;verticalAlign=middle;whiteSpace=wrap;rounded=0;" parent="1" vertex="1">
          <mxGeometry x="519" y="200" width="10" height="10" as="geometry" />
        </mxCell>
        <mxCell id="9doWRBDLY9oyG0HQF3CF-99" value="9" style="text;html=1;strokeColor=none;fillColor=none;align=center;verticalAlign=middle;whiteSpace=wrap;rounded=0;" parent="1" vertex="1">
          <mxGeometry x="519" y="210.00000000000003" width="10" height="10" as="geometry" />
        </mxCell>
        <mxCell id="9doWRBDLY9oyG0HQF3CF-100" value="10" style="text;html=1;strokeColor=none;fillColor=none;align=center;verticalAlign=middle;whiteSpace=wrap;rounded=0;" parent="1" vertex="1">
          <mxGeometry x="516" y="220.00000000000003" width="10" height="10" as="geometry" />
        </mxCell>
        <mxCell id="9doWRBDLY9oyG0HQF3CF-101" value="11" style="text;html=1;strokeColor=none;fillColor=none;align=center;verticalAlign=middle;whiteSpace=wrap;rounded=0;" parent="1" vertex="1">
          <mxGeometry x="516" y="230.00000000000003" width="10" height="10" as="geometry" />
        </mxCell>
        <mxCell id="9doWRBDLY9oyG0HQF3CF-102" value="12" style="text;html=1;strokeColor=none;fillColor=none;align=center;verticalAlign=middle;whiteSpace=wrap;rounded=0;rotation=0;" parent="1" vertex="1">
          <mxGeometry x="516" y="240.00000000000003" width="10" height="10" as="geometry" />
        </mxCell>
        <mxCell id="9doWRBDLY9oyG0HQF3CF-103" value="" style="rounded=0;whiteSpace=wrap;html=1;rotation=-90;" parent="1" vertex="1">
          <mxGeometry x="434" y="385.83000000000004" width="130" height="60" as="geometry" />
        </mxCell>
        <mxCell id="9doWRBDLY9oyG0HQF3CF-104" value="" style="endArrow=classic;html=1;rounded=0;exitX=0.878;exitY=1.011;exitDx=0;exitDy=0;exitPerimeter=0;" parent="1" edge="1">
          <mxGeometry width="50" height="50" relative="1" as="geometry">
            <mxPoint x="530" y="380.83000000000004" as="sourcePoint" />
            <mxPoint x="559" y="380.83000000000004" as="targetPoint" />
          </mxGeometry>
        </mxCell>
        <mxCell id="9doWRBDLY9oyG0HQF3CF-105" value="" style="endArrow=classic;html=1;rounded=0;exitX=0.878;exitY=1.011;exitDx=0;exitDy=0;exitPerimeter=0;" parent="1" edge="1">
          <mxGeometry width="50" height="50" relative="1" as="geometry">
            <mxPoint x="530" y="390.83000000000004" as="sourcePoint" />
            <mxPoint x="559" y="390.83000000000004" as="targetPoint" />
          </mxGeometry>
        </mxCell>
        <mxCell id="9doWRBDLY9oyG0HQF3CF-106" value="" style="endArrow=classic;html=1;rounded=0;exitX=0.878;exitY=1.011;exitDx=0;exitDy=0;exitPerimeter=0;" parent="1" edge="1">
          <mxGeometry width="50" height="50" relative="1" as="geometry">
            <mxPoint x="530" y="400.83000000000004" as="sourcePoint" />
            <mxPoint x="559" y="400.83000000000004" as="targetPoint" />
          </mxGeometry>
        </mxCell>
        <mxCell id="9doWRBDLY9oyG0HQF3CF-107" value="" style="endArrow=classic;html=1;rounded=0;exitX=0.878;exitY=1.011;exitDx=0;exitDy=0;exitPerimeter=0;" parent="1" edge="1">
          <mxGeometry width="50" height="50" relative="1" as="geometry">
            <mxPoint x="530" y="410.65999999999997" as="sourcePoint" />
            <mxPoint x="559" y="410.65999999999997" as="targetPoint" />
          </mxGeometry>
        </mxCell>
        <mxCell id="9doWRBDLY9oyG0HQF3CF-108" value="" style="endArrow=classic;html=1;rounded=0;exitX=0.878;exitY=1.011;exitDx=0;exitDy=0;exitPerimeter=0;" parent="1" edge="1">
          <mxGeometry width="50" height="50" relative="1" as="geometry">
            <mxPoint x="530" y="420.83" as="sourcePoint" />
            <mxPoint x="559" y="420.83" as="targetPoint" />
          </mxGeometry>
        </mxCell>
        <mxCell id="9doWRBDLY9oyG0HQF3CF-109" value="" style="endArrow=classic;html=1;rounded=0;exitX=0.878;exitY=1.011;exitDx=0;exitDy=0;exitPerimeter=0;" parent="1" edge="1">
          <mxGeometry width="50" height="50" relative="1" as="geometry">
            <mxPoint x="530" y="430.83" as="sourcePoint" />
            <mxPoint x="559" y="430.83" as="targetPoint" />
          </mxGeometry>
        </mxCell>
        <mxCell id="9doWRBDLY9oyG0HQF3CF-110" value="" style="endArrow=classic;html=1;rounded=0;exitX=0.878;exitY=1.011;exitDx=0;exitDy=0;exitPerimeter=0;" parent="1" edge="1">
          <mxGeometry width="50" height="50" relative="1" as="geometry">
            <mxPoint x="530" y="440.83" as="sourcePoint" />
            <mxPoint x="559" y="440.83" as="targetPoint" />
          </mxGeometry>
        </mxCell>
        <mxCell id="9doWRBDLY9oyG0HQF3CF-111" value="" style="endArrow=classic;html=1;rounded=0;exitX=0.878;exitY=1.011;exitDx=0;exitDy=0;exitPerimeter=0;" parent="1" edge="1">
          <mxGeometry width="50" height="50" relative="1" as="geometry">
            <mxPoint x="530" y="370.83000000000004" as="sourcePoint" />
            <mxPoint x="559" y="370.83000000000004" as="targetPoint" />
          </mxGeometry>
        </mxCell>
        <mxCell id="9doWRBDLY9oyG0HQF3CF-112" value="" style="endArrow=classic;html=1;rounded=0;exitX=0.878;exitY=1.011;exitDx=0;exitDy=0;exitPerimeter=0;" parent="1" edge="1">
          <mxGeometry width="50" height="50" relative="1" as="geometry">
            <mxPoint x="530" y="450.83" as="sourcePoint" />
            <mxPoint x="559" y="450.83" as="targetPoint" />
          </mxGeometry>
        </mxCell>
        <mxCell id="9doWRBDLY9oyG0HQF3CF-113" value="" style="endArrow=classic;html=1;rounded=0;exitX=0.878;exitY=1.011;exitDx=0;exitDy=0;exitPerimeter=0;" parent="1" edge="1">
          <mxGeometry width="50" height="50" relative="1" as="geometry">
            <mxPoint x="530" y="360.83000000000004" as="sourcePoint" />
            <mxPoint x="559" y="360.83000000000004" as="targetPoint" />
          </mxGeometry>
        </mxCell>
        <mxCell id="9doWRBDLY9oyG0HQF3CF-114" value="" style="endArrow=classic;html=1;rounded=0;exitX=0.878;exitY=1.011;exitDx=0;exitDy=0;exitPerimeter=0;" parent="1" edge="1">
          <mxGeometry width="50" height="50" relative="1" as="geometry">
            <mxPoint x="530" y="460.83" as="sourcePoint" />
            <mxPoint x="559" y="460.83" as="targetPoint" />
          </mxGeometry>
        </mxCell>
        <mxCell id="9doWRBDLY9oyG0HQF3CF-115" value="" style="endArrow=classic;html=1;rounded=0;exitX=0.878;exitY=1.011;exitDx=0;exitDy=0;exitPerimeter=0;" parent="1" edge="1">
          <mxGeometry width="50" height="50" relative="1" as="geometry">
            <mxPoint x="529" y="470.83" as="sourcePoint" />
            <mxPoint x="558" y="470.83" as="targetPoint" />
          </mxGeometry>
        </mxCell>
        <mxCell id="9doWRBDLY9oyG0HQF3CF-116" value="1" style="text;html=1;strokeColor=none;fillColor=none;align=center;verticalAlign=middle;whiteSpace=wrap;rounded=0;" parent="1" vertex="1">
          <mxGeometry x="519" y="350.83000000000004" width="10" height="10" as="geometry" />
        </mxCell>
        <mxCell id="9doWRBDLY9oyG0HQF3CF-117" value="2" style="text;html=1;strokeColor=none;fillColor=none;align=center;verticalAlign=middle;whiteSpace=wrap;rounded=0;" parent="1" vertex="1">
          <mxGeometry x="519" y="360.83000000000004" width="10" height="10" as="geometry" />
        </mxCell>
        <mxCell id="9doWRBDLY9oyG0HQF3CF-118" value="3" style="text;html=1;strokeColor=none;fillColor=none;align=center;verticalAlign=middle;whiteSpace=wrap;rounded=0;" parent="1" vertex="1">
          <mxGeometry x="519" y="370.83000000000004" width="10" height="10" as="geometry" />
        </mxCell>
        <mxCell id="9doWRBDLY9oyG0HQF3CF-119" value="4" style="text;html=1;strokeColor=none;fillColor=none;align=center;verticalAlign=middle;whiteSpace=wrap;rounded=0;" parent="1" vertex="1">
          <mxGeometry x="519" y="380.83000000000004" width="10" height="10" as="geometry" />
        </mxCell>
        <mxCell id="9doWRBDLY9oyG0HQF3CF-120" value="5" style="text;html=1;strokeColor=none;fillColor=none;align=center;verticalAlign=middle;whiteSpace=wrap;rounded=0;" parent="1" vertex="1">
          <mxGeometry x="519" y="390.83000000000004" width="10" height="10" as="geometry" />
        </mxCell>
        <mxCell id="9doWRBDLY9oyG0HQF3CF-121" value="6" style="text;html=1;strokeColor=none;fillColor=none;align=center;verticalAlign=middle;whiteSpace=wrap;rounded=0;" parent="1" vertex="1">
          <mxGeometry x="519" y="400.83000000000004" width="10" height="10" as="geometry" />
        </mxCell>
        <mxCell id="9doWRBDLY9oyG0HQF3CF-122" value="7" style="text;html=1;strokeColor=none;fillColor=none;align=center;verticalAlign=middle;whiteSpace=wrap;rounded=0;" parent="1" vertex="1">
          <mxGeometry x="519" y="410.83" width="10" height="10" as="geometry" />
        </mxCell>
        <mxCell id="9doWRBDLY9oyG0HQF3CF-123" value="8" style="text;html=1;strokeColor=none;fillColor=none;align=center;verticalAlign=middle;whiteSpace=wrap;rounded=0;" parent="1" vertex="1">
          <mxGeometry x="519" y="420.83" width="10" height="10" as="geometry" />
        </mxCell>
        <mxCell id="9doWRBDLY9oyG0HQF3CF-124" value="9" style="text;html=1;strokeColor=none;fillColor=none;align=center;verticalAlign=middle;whiteSpace=wrap;rounded=0;" parent="1" vertex="1">
          <mxGeometry x="519" y="430.83" width="10" height="10" as="geometry" />
        </mxCell>
        <mxCell id="9doWRBDLY9oyG0HQF3CF-125" value="10" style="text;html=1;strokeColor=none;fillColor=none;align=center;verticalAlign=middle;whiteSpace=wrap;rounded=0;" parent="1" vertex="1">
          <mxGeometry x="516" y="440.83" width="10" height="10" as="geometry" />
        </mxCell>
        <mxCell id="9doWRBDLY9oyG0HQF3CF-126" value="11" style="text;html=1;strokeColor=none;fillColor=none;align=center;verticalAlign=middle;whiteSpace=wrap;rounded=0;" parent="1" vertex="1">
          <mxGeometry x="516" y="450.83" width="10" height="10" as="geometry" />
        </mxCell>
        <mxCell id="9doWRBDLY9oyG0HQF3CF-127" value="12" style="text;html=1;strokeColor=none;fillColor=none;align=center;verticalAlign=middle;whiteSpace=wrap;rounded=0;rotation=0;" parent="1" vertex="1">
          <mxGeometry x="516" y="460.83" width="10" height="10" as="geometry" />
        </mxCell>
        <mxCell id="hdxrNy6VcyAhg9l_nc_A-3" value="*AtenciÃ³ amb el pinatge del connector.&lt;br&gt;El Molex de les ECUs tenen els pins per columnes, tal com a la figura segÃ¼ent:" style="text;html=1;strokeColor=none;fillColor=none;align=left;verticalAlign=middle;whiteSpace=wrap;rounded=0;" vertex="1" parent="1">
          <mxGeometry x="44" y="515.8299999999999" width="210" height="120" as="geometry" />
        </mxCell>
        <mxCell id="hdxrNy6VcyAhg9l_nc_A-6" value="" style="rounded=0;whiteSpace=wrap;html=1;direction=south;" vertex="1" parent="1">
          <mxGeometry x="123" y="685" width="60" height="120" as="geometry" />
        </mxCell>
        <mxCell id="hdxrNy6VcyAhg9l_nc_A-9" value="" style="endArrow=none;html=1;rounded=0;" edge="1" parent="1">
          <mxGeometry width="50" height="50" relative="1" as="geometry">
            <mxPoint x="183" y="695" as="sourcePoint" />
            <mxPoint x="203" y="695" as="targetPoint" />
          </mxGeometry>
        </mxCell>
        <mxCell id="hdxrNy6VcyAhg9l_nc_A-10" value="" style="endArrow=none;html=1;rounded=0;" edge="1" parent="1">
          <mxGeometry width="50" height="50" relative="1" as="geometry">
            <mxPoint x="183" y="715" as="sourcePoint" />
            <mxPoint x="203" y="715" as="targetPoint" />
          </mxGeometry>
        </mxCell>
        <mxCell id="hdxrNy6VcyAhg9l_nc_A-11" value="" style="endArrow=none;html=1;rounded=0;" edge="1" parent="1">
          <mxGeometry width="50" height="50" relative="1" as="geometry">
            <mxPoint x="183" y="735" as="sourcePoint" />
            <mxPoint x="203" y="735" as="targetPoint" />
          </mxGeometry>
        </mxCell>
        <mxCell id="hdxrNy6VcyAhg9l_nc_A-12" value="" style="endArrow=none;html=1;rounded=0;" edge="1" parent="1">
          <mxGeometry width="50" height="50" relative="1" as="geometry">
            <mxPoint x="183" y="754.86" as="sourcePoint" />
            <mxPoint x="203" y="754.86" as="targetPoint" />
          </mxGeometry>
        </mxCell>
        <mxCell id="hdxrNy6VcyAhg9l_nc_A-13" value="" style="endArrow=none;html=1;rounded=0;" edge="1" parent="1">
          <mxGeometry width="50" height="50" relative="1" as="geometry">
            <mxPoint x="183" y="775" as="sourcePoint" />
            <mxPoint x="203" y="775" as="targetPoint" />
          </mxGeometry>
        </mxCell>
        <mxCell id="hdxrNy6VcyAhg9l_nc_A-14" value="" style="endArrow=none;html=1;rounded=0;" edge="1" parent="1">
          <mxGeometry width="50" height="50" relative="1" as="geometry">
            <mxPoint x="183" y="795" as="sourcePoint" />
            <mxPoint x="203" y="795" as="targetPoint" />
          </mxGeometry>
        </mxCell>
        <mxCell id="hdxrNy6VcyAhg9l_nc_A-15" value="" style="endArrow=none;html=1;rounded=0;" edge="1" parent="1">
          <mxGeometry width="50" height="50" relative="1" as="geometry">
            <mxPoint x="103" y="695" as="sourcePoint" />
            <mxPoint x="123" y="695" as="targetPoint" />
          </mxGeometry>
        </mxCell>
        <mxCell id="hdxrNy6VcyAhg9l_nc_A-16" value="" style="endArrow=none;html=1;rounded=0;" edge="1" parent="1">
          <mxGeometry width="50" height="50" relative="1" as="geometry">
            <mxPoint x="103" y="715" as="sourcePoint" />
            <mxPoint x="123" y="715" as="targetPoint" />
          </mxGeometry>
        </mxCell>
        <mxCell id="hdxrNy6VcyAhg9l_nc_A-17" value="" style="endArrow=none;html=1;rounded=0;" edge="1" parent="1">
          <mxGeometry width="50" height="50" relative="1" as="geometry">
            <mxPoint x="103" y="735" as="sourcePoint" />
            <mxPoint x="123" y="735" as="targetPoint" />
          </mxGeometry>
        </mxCell>
        <mxCell id="hdxrNy6VcyAhg9l_nc_A-18" value="" style="endArrow=none;html=1;rounded=0;" edge="1" parent="1">
          <mxGeometry width="50" height="50" relative="1" as="geometry">
            <mxPoint x="103" y="754.86" as="sourcePoint" />
            <mxPoint x="123" y="754.86" as="targetPoint" />
          </mxGeometry>
        </mxCell>
        <mxCell id="hdxrNy6VcyAhg9l_nc_A-19" value="" style="endArrow=none;html=1;rounded=0;" edge="1" parent="1">
          <mxGeometry width="50" height="50" relative="1" as="geometry">
            <mxPoint x="103" y="775" as="sourcePoint" />
            <mxPoint x="123" y="775" as="targetPoint" />
          </mxGeometry>
        </mxCell>
        <mxCell id="hdxrNy6VcyAhg9l_nc_A-20" value="" style="endArrow=none;html=1;rounded=0;" edge="1" parent="1">
          <mxGeometry width="50" height="50" relative="1" as="geometry">
            <mxPoint x="103" y="795" as="sourcePoint" />
            <mxPoint x="123" y="795" as="targetPoint" />
          </mxGeometry>
        </mxCell>
        <mxCell id="hdxrNy6VcyAhg9l_nc_A-22" value="" style="ellipse;whiteSpace=wrap;html=1;aspect=fixed;fillColor=#000000;" vertex="1" parent="1">
          <mxGeometry x="123" y="665" width="10" height="10" as="geometry" />
        </mxCell>
        <mxCell id="hdxrNy6VcyAhg9l_nc_A-23" value="" style="rounded=0;whiteSpace=wrap;html=1;direction=south;fillColor=#000000;" vertex="1" parent="1">
          <mxGeometry x="123" y="725" width="20" height="40" as="geometry" />
        </mxCell>
        <mxCell id="hdxrNy6VcyAhg9l_nc_A-24" value="Clip" style="text;html=1;strokeColor=none;fillColor=none;align=center;verticalAlign=middle;whiteSpace=wrap;rounded=0;rotation=270;" vertex="1" parent="1">
          <mxGeometry x="119" y="730" width="60" height="30" as="geometry" />
        </mxCell>
        <mxCell id="hdxrNy6VcyAhg9l_nc_A-25" value="1&lt;br&gt;" style="text;html=1;strokeColor=none;fillColor=none;align=center;verticalAlign=middle;whiteSpace=wrap;rounded=0;" vertex="1" parent="1">
          <mxGeometry x="109" y="685" width="6" height="10" as="geometry" />
        </mxCell>
        <mxCell id="hdxrNy6VcyAhg9l_nc_A-26" value="2" style="text;html=1;strokeColor=none;fillColor=none;align=center;verticalAlign=middle;whiteSpace=wrap;rounded=0;" vertex="1" parent="1">
          <mxGeometry x="109" y="705" width="6" height="10" as="geometry" />
        </mxCell>
        <mxCell id="hdxrNy6VcyAhg9l_nc_A-27" value="3" style="text;html=1;strokeColor=none;fillColor=none;align=center;verticalAlign=middle;whiteSpace=wrap;rounded=0;" vertex="1" parent="1">
          <mxGeometry x="109" y="725" width="6" height="10" as="geometry" />
        </mxCell>
        <mxCell id="hdxrNy6VcyAhg9l_nc_A-28" value="4" style="text;html=1;strokeColor=none;fillColor=none;align=center;verticalAlign=middle;whiteSpace=wrap;rounded=0;" vertex="1" parent="1">
          <mxGeometry x="109" y="745" width="6" height="10" as="geometry" />
        </mxCell>
        <mxCell id="hdxrNy6VcyAhg9l_nc_A-29" value="5" style="text;html=1;strokeColor=none;fillColor=none;align=center;verticalAlign=middle;whiteSpace=wrap;rounded=0;" vertex="1" parent="1">
          <mxGeometry x="109" y="765" width="6" height="10" as="geometry" />
        </mxCell>
        <mxCell id="hdxrNy6VcyAhg9l_nc_A-30" value="6" style="text;html=1;strokeColor=none;fillColor=none;align=center;verticalAlign=middle;whiteSpace=wrap;rounded=0;" vertex="1" parent="1">
          <mxGeometry x="109" y="785" width="6" height="10" as="geometry" />
        </mxCell>
        <mxCell id="hdxrNy6VcyAhg9l_nc_A-31" value="7" style="text;html=1;strokeColor=none;fillColor=none;align=center;verticalAlign=middle;whiteSpace=wrap;rounded=0;" vertex="1" parent="1">
          <mxGeometry x="193" y="685" width="6" height="10" as="geometry" />
        </mxCell>
        <mxCell id="hdxrNy6VcyAhg9l_nc_A-32" value="8" style="text;html=1;strokeColor=none;fillColor=none;align=center;verticalAlign=middle;whiteSpace=wrap;rounded=0;" vertex="1" parent="1">
          <mxGeometry x="193" y="705" width="6" height="10" as="geometry" />
        </mxCell>
        <mxCell id="hdxrNy6VcyAhg9l_nc_A-33" value="9" style="text;html=1;strokeColor=none;fillColor=none;align=center;verticalAlign=middle;whiteSpace=wrap;rounded=0;" vertex="1" parent="1">
          <mxGeometry x="193" y="725" width="6" height="10" as="geometry" />
        </mxCell>
        <mxCell id="hdxrNy6VcyAhg9l_nc_A-34" value="10" style="text;html=1;strokeColor=none;fillColor=none;align=center;verticalAlign=middle;whiteSpace=wrap;rounded=0;" vertex="1" parent="1">
          <mxGeometry x="193" y="745" width="6" height="10" as="geometry" />
        </mxCell>
        <mxCell id="hdxrNy6VcyAhg9l_nc_A-35" value="11" style="text;html=1;strokeColor=none;fillColor=none;align=center;verticalAlign=middle;whiteSpace=wrap;rounded=0;" vertex="1" parent="1">
          <mxGeometry x="193" y="765" width="6" height="10" as="geometry" />
        </mxCell>
        <mxCell id="hdxrNy6VcyAhg9l_nc_A-36" value="12" style="text;html=1;strokeColor=none;fillColor=none;align=center;verticalAlign=middle;whiteSpace=wrap;rounded=0;" vertex="1" parent="1">
          <mxGeometry x="193" y="785" width="6" height="10" as="geometry" />
        </mxCell>
        <mxCell id="hdxrNy6VcyAhg9l_nc_A-38" value="Taula connexions connectors des de les ECUs a ECU Dummy:" style="text;html=1;strokeColor=none;fillColor=none;align=center;verticalAlign=middle;whiteSpace=wrap;rounded=0;" vertex="1" parent="1">
          <mxGeometry x="224" y="540" width="440" height="30" as="geometry" />
        </mxCell>
        <mxCell id="hdxrNy6VcyAhg9l_nc_A-39" value="FRONT ECU&lt;br&gt;&lt;br&gt;-J1 va a JFS1&lt;br&gt;-J2 va a JFRS2" style="text;html=1;strokeColor=none;fillColor=none;align=left;verticalAlign=middle;whiteSpace=wrap;rounded=0;" vertex="1" parent="1">
          <mxGeometry x="294" y="580" width="100" height="90" as="geometry" />
        </mxCell>
        <mxCell id="hdxrNy6VcyAhg9l_nc_A-40" value="REAR ECU&lt;br&gt;&lt;br&gt;-J1 va a JRS1&lt;br&gt;-J2 va a JFRS2" style="text;html=1;strokeColor=none;fillColor=none;align=left;verticalAlign=middle;whiteSpace=wrap;rounded=0;" vertex="1" parent="1">
          <mxGeometry x="429" y="580" width="100" height="90" as="geometry" />
        </mxCell>
        <mxCell id="hdxrNy6VcyAhg9l_nc_A-41" value="*El connector JFRS2 es compatible amb el J2 de les dos ECUs. Nomes n&#39;hi ha un a la ECU_Dummy per tant nomÃ©s es pot fer test del J2 a una ECU alhora" style="text;html=1;strokeColor=none;fillColor=none;align=left;verticalAlign=middle;whiteSpace=wrap;rounded=0;" vertex="1" parent="1">
          <mxGeometry x="284" y="670" width="430" height="30" as="geometry" />
        </mxCell>
        <mxCell id="hdxrNy6VcyAhg9l_nc_A-42" value="&lt;h1&gt;ECUs &amp;amp; ECU_Dummy interconnections&lt;/h1&gt;" style="text;html=1;strokeColor=none;fillColor=none;align=left;verticalAlign=middle;whiteSpace=wrap;rounded=0;" vertex="1" parent="1">
          <mxGeometry x="34" y="30" width="456" height="30" as="geometry" />
        </mxCell>
        <mxCell id="hdxrNy6VcyAhg9l_nc_A-43" value="J1" style="text;html=1;strokeColor=none;fillColor=none;align=center;verticalAlign=middle;whiteSpace=wrap;rounded=0;" vertex="1" parent="1">
          <mxGeometry x="71" y="260" width="60" height="30" as="geometry" />
        </mxCell>
        <mxCell id="hdxrNy6VcyAhg9l_nc_A-44" value="J2" style="text;html=1;strokeColor=none;fillColor=none;align=center;verticalAlign=middle;whiteSpace=wrap;rounded=0;" vertex="1" parent="1">
          <mxGeometry x="469" y="260" width="60" height="30" as="geometry" />
        </mxCell>
        <mxCell id="hdxrNy6VcyAhg9l_nc_A-45" value="J1" style="text;html=1;strokeColor=none;fillColor=none;align=center;verticalAlign=middle;whiteSpace=wrap;rounded=0;" vertex="1" parent="1">
          <mxGeometry x="74" y="480" width="60" height="30" as="geometry" />
        </mxCell>
        <mxCell id="hdxrNy6VcyAhg9l_nc_A-46" value="J2" style="text;html=1;strokeColor=none;fillColor=none;align=center;verticalAlign=middle;whiteSpace=wrap;rounded=0;" vertex="1" parent="1">
          <mxGeometry x="469" y="480" width="60" height="30" as="geometry" />
        </mxCell>
        <mxCell id="hdxrNy6VcyAhg9l_nc_A-47" value="FECU&lt;br style=&quot;font-size: 21px;&quot;&gt;" style="text;html=1;strokeColor=none;fillColor=none;align=center;verticalAlign=middle;whiteSpace=wrap;rounded=0;fontSize=21;" vertex="1" parent="1">
          <mxGeometry x="733" y="110" width="60" height="30" as="geometry" />
        </mxCell>
        <mxCell id="hdxrNy6VcyAhg9l_nc_A-48" value="RECU" style="text;html=1;strokeColor=none;fillColor=none;align=center;verticalAlign=middle;whiteSpace=wrap;rounded=0;fontSize=21;" vertex="1" parent="1">
          <mxGeometry x="733" y="315.83000000000004" width="60" height="30" as="geometry" />
        </mxCell>
        <mxCell id="hdxrNy6VcyAhg9l_nc_A-49" value="+5V" style="text;html=1;strokeColor=none;fillColor=none;align=center;verticalAlign=middle;whiteSpace=wrap;rounded=0;" vertex="1" parent="1">
          <mxGeometry x="170" y="130" width="23" height="20" as="geometry" />
        </mxCell>
        <mxCell id="hdxrNy6VcyAhg9l_nc_A-50" value="+5V" style="text;html=1;strokeColor=none;fillColor=none;align=center;verticalAlign=middle;whiteSpace=wrap;rounded=0;" vertex="1" parent="1">
          <mxGeometry x="170" y="140" width="23" height="20" as="geometry" />
        </mxCell>
        <mxCell id="hdxrNy6VcyAhg9l_nc_A-51" value="+5V" style="text;html=1;strokeColor=none;fillColor=none;align=center;verticalAlign=middle;whiteSpace=wrap;rounded=0;" vertex="1" parent="1">
          <mxGeometry x="169" y="150" width="23" height="20" as="geometry" />
        </mxCell>
        <mxCell id="hdxrNy6VcyAhg9l_nc_A-52" value="GND" style="text;html=1;strokeColor=none;fillColor=none;align=center;verticalAlign=middle;whiteSpace=wrap;rounded=0;" vertex="1" parent="1">
          <mxGeometry x="169" y="160" width="23" height="20" as="geometry" />
        </mxCell>
        <mxCell id="hdxrNy6VcyAhg9l_nc_A-53" value="GND" style="text;html=1;strokeColor=none;fillColor=none;align=center;verticalAlign=middle;whiteSpace=wrap;rounded=0;" vertex="1" parent="1">
          <mxGeometry x="169" y="170" width="23" height="20" as="geometry" />
        </mxCell>
        <mxCell id="hdxrNy6VcyAhg9l_nc_A-54" value="GND" style="text;html=1;strokeColor=none;fillColor=none;align=center;verticalAlign=middle;whiteSpace=wrap;rounded=0;" vertex="1" parent="1">
          <mxGeometry x="170" y="180" width="23" height="20" as="geometry" />
        </mxCell>
        <mxCell id="hdxrNy6VcyAhg9l_nc_A-55" value="S1&lt;br&gt;" style="text;html=1;strokeColor=none;fillColor=none;align=center;verticalAlign=middle;whiteSpace=wrap;rounded=0;" vertex="1" parent="1">
          <mxGeometry x="170" y="190" width="23" height="20" as="geometry" />
        </mxCell>
        <mxCell id="hdxrNy6VcyAhg9l_nc_A-56" value="S2" style="text;html=1;strokeColor=none;fillColor=none;align=center;verticalAlign=middle;whiteSpace=wrap;rounded=0;" vertex="1" parent="1">
          <mxGeometry x="169" y="200" width="23" height="20" as="geometry" />
        </mxCell>
        <mxCell id="hdxrNy6VcyAhg9l_nc_A-57" value="S3" style="text;html=1;strokeColor=none;fillColor=none;align=center;verticalAlign=middle;whiteSpace=wrap;rounded=0;" vertex="1" parent="1">
          <mxGeometry x="169" y="210" width="23" height="20" as="geometry" />
        </mxCell>
        <mxCell id="hdxrNy6VcyAhg9l_nc_A-58" value="S4" style="text;html=1;strokeColor=none;fillColor=none;align=center;verticalAlign=middle;whiteSpace=wrap;rounded=0;" vertex="1" parent="1">
          <mxGeometry x="169" y="220" width="23" height="20" as="geometry" />
        </mxCell>
        <mxCell id="hdxrNy6VcyAhg9l_nc_A-59" value="S5" style="text;html=1;strokeColor=none;fillColor=none;align=center;verticalAlign=middle;whiteSpace=wrap;rounded=0;" vertex="1" parent="1">
          <mxGeometry x="169" y="230" width="23" height="20" as="geometry" />
        </mxCell>
        <mxCell id="hdxrNy6VcyAhg9l_nc_A-60" value="S6" style="text;html=1;strokeColor=none;fillColor=none;align=center;verticalAlign=middle;whiteSpace=wrap;rounded=0;" vertex="1" parent="1">
          <mxGeometry x="169" y="240" width="23" height="20" as="geometry" />
        </mxCell>
        <mxCell id="hdxrNy6VcyAhg9l_nc_A-63" value="" style="strokeWidth=2;html=1;shape=mxgraph.flowchart.annotation_2;align=left;labelPosition=right;pointerEvents=1;direction=west;" vertex="1" parent="1">
          <mxGeometry x="193" y="200" width="20" height="50" as="geometry" />
        </mxCell>
        <mxCell id="hdxrNy6VcyAhg9l_nc_A-64" value="Analog inputs 5V" style="text;html=1;strokeColor=none;fillColor=none;align=center;verticalAlign=middle;whiteSpace=wrap;rounded=0;" vertex="1" parent="1">
          <mxGeometry x="213" y="215" width="97" height="20" as="geometry" />
        </mxCell>
        <mxCell id="hdxrNy6VcyAhg9l_nc_A-65" value="S7" style="text;html=1;strokeColor=none;fillColor=none;align=center;verticalAlign=middle;whiteSpace=wrap;rounded=0;" vertex="1" parent="1">
          <mxGeometry x="560" y="130" width="23" height="20" as="geometry" />
        </mxCell>
        <mxCell id="hdxrNy6VcyAhg9l_nc_A-66" value="S8" style="text;html=1;strokeColor=none;fillColor=none;align=center;verticalAlign=middle;whiteSpace=wrap;rounded=0;" vertex="1" parent="1">
          <mxGeometry x="560" y="140" width="23" height="20" as="geometry" />
        </mxCell>
        <mxCell id="hdxrNy6VcyAhg9l_nc_A-67" value="S9" style="text;html=1;strokeColor=none;fillColor=none;align=center;verticalAlign=middle;whiteSpace=wrap;rounded=0;" vertex="1" parent="1">
          <mxGeometry x="560" y="150" width="23" height="20" as="geometry" />
        </mxCell>
        <mxCell id="hdxrNy6VcyAhg9l_nc_A-68" value="S10" style="text;html=1;strokeColor=none;fillColor=none;align=center;verticalAlign=middle;whiteSpace=wrap;rounded=0;" vertex="1" parent="1">
          <mxGeometry x="563" y="160" width="23" height="20" as="geometry" />
        </mxCell>
        <mxCell id="hdxrNy6VcyAhg9l_nc_A-69" value="S11" style="text;html=1;strokeColor=none;fillColor=none;align=center;verticalAlign=middle;whiteSpace=wrap;rounded=0;" vertex="1" parent="1">
          <mxGeometry x="563" y="170" width="23" height="20" as="geometry" />
        </mxCell>
        <mxCell id="hdxrNy6VcyAhg9l_nc_A-70" value="S12" style="text;html=1;strokeColor=none;fillColor=none;align=center;verticalAlign=middle;whiteSpace=wrap;rounded=0;" vertex="1" parent="1">
          <mxGeometry x="563" y="180" width="23" height="20" as="geometry" />
        </mxCell>
        <mxCell id="hdxrNy6VcyAhg9l_nc_A-71" value="+24V" style="text;html=1;strokeColor=none;fillColor=none;align=center;verticalAlign=middle;whiteSpace=wrap;rounded=0;" vertex="1" parent="1">
          <mxGeometry x="564" y="190" width="23" height="20" as="geometry" />
        </mxCell>
        <mxCell id="hdxrNy6VcyAhg9l_nc_A-72" value="+24V" style="text;html=1;strokeColor=none;fillColor=none;align=center;verticalAlign=middle;whiteSpace=wrap;rounded=0;" vertex="1" parent="1">
          <mxGeometry x="564" y="200" width="23" height="20" as="geometry" />
        </mxCell>
        <mxCell id="hdxrNy6VcyAhg9l_nc_A-73" value="+24V" style="text;html=1;strokeColor=none;fillColor=none;align=center;verticalAlign=middle;whiteSpace=wrap;rounded=0;" vertex="1" parent="1">
          <mxGeometry x="564" y="210" width="23" height="20" as="geometry" />
        </mxCell>
        <mxCell id="hdxrNy6VcyAhg9l_nc_A-74" value="GND" style="text;html=1;strokeColor=none;fillColor=none;align=center;verticalAlign=middle;whiteSpace=wrap;rounded=0;" vertex="1" parent="1">
          <mxGeometry x="564" y="220" width="23" height="20" as="geometry" />
        </mxCell>
        <mxCell id="hdxrNy6VcyAhg9l_nc_A-75" value="GND" style="text;html=1;strokeColor=none;fillColor=none;align=center;verticalAlign=middle;whiteSpace=wrap;rounded=0;" vertex="1" parent="1">
          <mxGeometry x="564" y="230" width="23" height="20" as="geometry" />
        </mxCell>
        <mxCell id="hdxrNy6VcyAhg9l_nc_A-76" value="GND" style="text;html=1;strokeColor=none;fillColor=none;align=center;verticalAlign=middle;whiteSpace=wrap;rounded=0;" vertex="1" parent="1">
          <mxGeometry x="564" y="240" width="23" height="20" as="geometry" />
        </mxCell>
        <mxCell id="hdxrNy6VcyAhg9l_nc_A-77" value="" style="strokeWidth=2;html=1;shape=mxgraph.flowchart.annotation_2;align=left;labelPosition=right;pointerEvents=1;direction=west;" vertex="1" parent="1">
          <mxGeometry x="587" y="150" width="10" height="20" as="geometry" />
        </mxCell>
        <mxCell id="hdxrNy6VcyAhg9l_nc_A-78" value="Digital inputs 24V" style="text;html=1;strokeColor=none;fillColor=none;align=center;verticalAlign=middle;whiteSpace=wrap;rounded=0;" vertex="1" parent="1">
          <mxGeometry x="597" y="150" width="103" height="20" as="geometry" />
        </mxCell>
        <mxCell id="hdxrNy6VcyAhg9l_nc_A-79" value="S5" style="text;html=1;strokeColor=none;fillColor=none;align=center;verticalAlign=middle;whiteSpace=wrap;rounded=0;" vertex="1" parent="1">
          <mxGeometry x="560" y="350.83000000000004" width="23" height="20" as="geometry" />
        </mxCell>
        <mxCell id="hdxrNy6VcyAhg9l_nc_A-80" value="S6" style="text;html=1;strokeColor=none;fillColor=none;align=center;verticalAlign=middle;whiteSpace=wrap;rounded=0;" vertex="1" parent="1">
          <mxGeometry x="560" y="360.83000000000004" width="23" height="20" as="geometry" />
        </mxCell>
        <mxCell id="hdxrNy6VcyAhg9l_nc_A-81" value="S7" style="text;html=1;strokeColor=none;fillColor=none;align=center;verticalAlign=middle;whiteSpace=wrap;rounded=0;" vertex="1" parent="1">
          <mxGeometry x="560" y="370.83000000000004" width="23" height="20" as="geometry" />
        </mxCell>
        <mxCell id="hdxrNy6VcyAhg9l_nc_A-82" value="S8" style="text;html=1;strokeColor=none;fillColor=none;align=center;verticalAlign=middle;whiteSpace=wrap;rounded=0;" vertex="1" parent="1">
          <mxGeometry x="560" y="380.83000000000004" width="23" height="20" as="geometry" />
        </mxCell>
        <mxCell id="hdxrNy6VcyAhg9l_nc_A-83" value="S9" style="text;html=1;strokeColor=none;fillColor=none;align=center;verticalAlign=middle;whiteSpace=wrap;rounded=0;" vertex="1" parent="1">
          <mxGeometry x="560" y="390.83000000000004" width="23" height="20" as="geometry" />
        </mxCell>
        <mxCell id="hdxrNy6VcyAhg9l_nc_A-84" value="S10" style="text;html=1;strokeColor=none;fillColor=none;align=center;verticalAlign=middle;whiteSpace=wrap;rounded=0;" vertex="1" parent="1">
          <mxGeometry x="563" y="400.83000000000004" width="23" height="20" as="geometry" />
        </mxCell>
        <mxCell id="hdxrNy6VcyAhg9l_nc_A-85" value="+24V" style="text;html=1;strokeColor=none;fillColor=none;align=center;verticalAlign=middle;whiteSpace=wrap;rounded=0;" vertex="1" parent="1">
          <mxGeometry x="566" y="410.83000000000004" width="23" height="20" as="geometry" />
        </mxCell>
        <mxCell id="hdxrNy6VcyAhg9l_nc_A-86" value="+24V" style="text;html=1;strokeColor=none;fillColor=none;align=center;verticalAlign=middle;whiteSpace=wrap;rounded=0;" vertex="1" parent="1">
          <mxGeometry x="566" y="420.83000000000004" width="23" height="20" as="geometry" />
        </mxCell>
        <mxCell id="hdxrNy6VcyAhg9l_nc_A-87" value="+24V" style="text;html=1;strokeColor=none;fillColor=none;align=center;verticalAlign=middle;whiteSpace=wrap;rounded=0;" vertex="1" parent="1">
          <mxGeometry x="566" y="430.83000000000004" width="23" height="20" as="geometry" />
        </mxCell>
        <mxCell id="hdxrNy6VcyAhg9l_nc_A-88" value="GND" style="text;html=1;strokeColor=none;fillColor=none;align=center;verticalAlign=middle;whiteSpace=wrap;rounded=0;" vertex="1" parent="1">
          <mxGeometry x="565" y="440.83000000000004" width="23" height="20" as="geometry" />
        </mxCell>
        <mxCell id="hdxrNy6VcyAhg9l_nc_A-89" value="GND" style="text;html=1;strokeColor=none;fillColor=none;align=center;verticalAlign=middle;whiteSpace=wrap;rounded=0;" vertex="1" parent="1">
          <mxGeometry x="565" y="450.83000000000004" width="23" height="20" as="geometry" />
        </mxCell>
        <mxCell id="hdxrNy6VcyAhg9l_nc_A-90" value="GND" style="text;html=1;strokeColor=none;fillColor=none;align=center;verticalAlign=middle;whiteSpace=wrap;rounded=0;" vertex="1" parent="1">
          <mxGeometry x="565" y="460.83000000000004" width="23" height="20" as="geometry" />
        </mxCell>
        <mxCell id="hdxrNy6VcyAhg9l_nc_A-91" value="+5V" style="text;html=1;strokeColor=none;fillColor=none;align=center;verticalAlign=middle;whiteSpace=wrap;rounded=0;" vertex="1" parent="1">
          <mxGeometry x="169" y="350.43000000000006" width="23" height="20" as="geometry" />
        </mxCell>
        <mxCell id="hdxrNy6VcyAhg9l_nc_A-92" value="+5V" style="text;html=1;strokeColor=none;fillColor=none;align=center;verticalAlign=middle;whiteSpace=wrap;rounded=0;" vertex="1" parent="1">
          <mxGeometry x="169" y="360.43000000000006" width="23" height="20" as="geometry" />
        </mxCell>
        <mxCell id="hdxrNy6VcyAhg9l_nc_A-93" value="+5V" style="text;html=1;strokeColor=none;fillColor=none;align=center;verticalAlign=middle;whiteSpace=wrap;rounded=0;" vertex="1" parent="1">
          <mxGeometry x="169" y="370.83000000000004" width="23" height="20" as="geometry" />
        </mxCell>
        <mxCell id="hdxrNy6VcyAhg9l_nc_A-94" value="S11" style="text;html=1;strokeColor=none;fillColor=none;align=center;verticalAlign=middle;whiteSpace=wrap;rounded=0;" vertex="1" parent="1">
          <mxGeometry x="169" y="380.83000000000004" width="23" height="20" as="geometry" />
        </mxCell>
        <mxCell id="hdxrNy6VcyAhg9l_nc_A-95" value="GND" style="text;html=1;strokeColor=none;fillColor=none;align=center;verticalAlign=middle;whiteSpace=wrap;rounded=0;" vertex="1" parent="1">
          <mxGeometry x="171" y="390.83000000000004" width="23" height="20" as="geometry" />
        </mxCell>
        <mxCell id="hdxrNy6VcyAhg9l_nc_A-96" value="GND" style="text;html=1;strokeColor=none;fillColor=none;align=center;verticalAlign=middle;whiteSpace=wrap;rounded=0;" vertex="1" parent="1">
          <mxGeometry x="171" y="400.83000000000004" width="23" height="20" as="geometry" />
        </mxCell>
        <mxCell id="hdxrNy6VcyAhg9l_nc_A-97" value="S1" style="text;html=1;strokeColor=none;fillColor=none;align=center;verticalAlign=middle;whiteSpace=wrap;rounded=0;" vertex="1" parent="1">
          <mxGeometry x="166" y="410.83000000000004" width="23" height="20" as="geometry" />
        </mxCell>
        <mxCell id="hdxrNy6VcyAhg9l_nc_A-98" value="S2" style="text;html=1;strokeColor=none;fillColor=none;align=center;verticalAlign=middle;whiteSpace=wrap;rounded=0;" vertex="1" parent="1">
          <mxGeometry x="166" y="420.83000000000004" width="23" height="20" as="geometry" />
        </mxCell>
        <mxCell id="hdxrNy6VcyAhg9l_nc_A-99" value="S3" style="text;html=1;strokeColor=none;fillColor=none;align=center;verticalAlign=middle;whiteSpace=wrap;rounded=0;" vertex="1" parent="1">
          <mxGeometry x="166" y="430.83000000000004" width="23" height="20" as="geometry" />
        </mxCell>
        <mxCell id="hdxrNy6VcyAhg9l_nc_A-100" value="S4" style="text;html=1;strokeColor=none;fillColor=none;align=center;verticalAlign=middle;whiteSpace=wrap;rounded=0;" vertex="1" parent="1">
          <mxGeometry x="166" y="440.83000000000004" width="23" height="20" as="geometry" />
        </mxCell>
        <mxCell id="hdxrNy6VcyAhg9l_nc_A-101" value="+24V" style="text;html=1;strokeColor=none;fillColor=none;align=center;verticalAlign=middle;whiteSpace=wrap;rounded=0;" vertex="1" parent="1">
          <mxGeometry x="171" y="450.83000000000004" width="23" height="20" as="geometry" />
        </mxCell>
        <mxCell id="hdxrNy6VcyAhg9l_nc_A-102" value="+24V" style="text;html=1;strokeColor=none;fillColor=none;align=center;verticalAlign=middle;whiteSpace=wrap;rounded=0;" vertex="1" parent="1">
          <mxGeometry x="171" y="460.83000000000004" width="23" height="20" as="geometry" />
        </mxCell>
        <mxCell id="hdxrNy6VcyAhg9l_nc_A-103" value="" style="strokeWidth=2;html=1;shape=mxgraph.flowchart.annotation_2;align=left;labelPosition=right;pointerEvents=1;direction=west;" vertex="1" parent="1">
          <mxGeometry x="588" y="360" width="12" height="50.83" as="geometry" />
        </mxCell>
        <mxCell id="hdxrNy6VcyAhg9l_nc_A-104" value="Digital inputs 24V" style="text;html=1;strokeColor=none;fillColor=none;align=center;verticalAlign=middle;whiteSpace=wrap;rounded=0;" vertex="1" parent="1">
          <mxGeometry x="600" y="375.83000000000004" width="103" height="20" as="geometry" />
        </mxCell>
        <mxCell id="hdxrNy6VcyAhg9l_nc_A-105" value="" style="strokeWidth=2;html=1;shape=mxgraph.flowchart.annotation_2;align=left;labelPosition=right;pointerEvents=1;direction=west;" vertex="1" parent="1">
          <mxGeometry x="587" y="177.5" width="10" height="15" as="geometry" />
        </mxCell>
        <mxCell id="hdxrNy6VcyAhg9l_nc_A-106" value="Analog inputs 5V" style="text;html=1;strokeColor=none;fillColor=none;align=center;verticalAlign=middle;whiteSpace=wrap;rounded=0;" vertex="1" parent="1">
          <mxGeometry x="597" y="175" width="97" height="20" as="geometry" />
        </mxCell>
        <mxCell id="hdxrNy6VcyAhg9l_nc_A-107" value="" style="strokeWidth=2;html=1;shape=mxgraph.flowchart.annotation_2;align=left;labelPosition=right;pointerEvents=1;direction=west;" vertex="1" parent="1">
          <mxGeometry x="189" y="420.83" width="11" height="30" as="geometry" />
        </mxCell>
        <mxCell id="hdxrNy6VcyAhg9l_nc_A-108" value="Analog inputs 5V" style="text;html=1;strokeColor=none;fillColor=none;align=center;verticalAlign=middle;whiteSpace=wrap;rounded=0;" vertex="1" parent="1">
          <mxGeometry x="200" y="425.83" width="97" height="20" as="geometry" />
        </mxCell>
        <mxCell id="hdxrNy6VcyAhg9l_nc_A-111" value="" style="endArrow=classic;html=1;rounded=0;" edge="1" parent="1">
          <mxGeometry width="50" height="50" relative="1" as="geometry">
            <mxPoint x="194" y="390.18" as="sourcePoint" />
            <mxPoint x="214" y="390.18" as="targetPoint" />
          </mxGeometry>
        </mxCell>
        <mxCell id="hdxrNy6VcyAhg9l_nc_A-112" value="Analog input 5V" style="text;html=1;strokeColor=none;fillColor=none;align=center;verticalAlign=middle;whiteSpace=wrap;rounded=0;" vertex="1" parent="1">
          <mxGeometry x="213.5" y="380.83" width="97" height="20" as="geometry" />
        </mxCell>
        <mxCell id="hdxrNy6VcyAhg9l_nc_A-113" value="" style="endArrow=classic;html=1;rounded=0;" edge="1" parent="1">
          <mxGeometry width="50" height="50" relative="1" as="geometry">
            <mxPoint x="583.5" y="139.35" as="sourcePoint" />
            <mxPoint x="603.5" y="139.35" as="targetPoint" />
          </mxGeometry>
        </mxCell>
        <mxCell id="hdxrNy6VcyAhg9l_nc_A-114" value="Analog input 5V" style="text;html=1;strokeColor=none;fillColor=none;align=center;verticalAlign=middle;whiteSpace=wrap;rounded=0;" vertex="1" parent="1">
          <mxGeometry x="603" y="129.99999999999997" width="97" height="20" as="geometry" />
        </mxCell>
      </root>
    </mxGraphModel>
  </diagram>
</mxfile>
